<svg width="512" height="512" viewBox="0 0 512 512" fill="none" xmlns="http://www.w3.org/2000/svg">
<g clip-path="url(#clip0_11_1082)">
<path d="M512 0H0V512H512V0Z" fill="#A7F175"/>
<path d="M240.87 354.089C218.656 354.089 204.525 340.612 204.525 323.52C204.525 250.375 396.875 235.731 396.875 158.052C396.875 110.665 341.982 90.2402 271.91 90.2402C229.286 90.2402 181.092 98.1293 136.333 112.246V204.913C202.293 156.871 275.58 136.305 322.786 136.305C352.469 136.305 372.61 144.587 372.61 159.426C372.61 220.563 107.324 210.876 107.324 342.983C107.324 393.619 142.142 422.631 191.127 422.631C265.222 422.631 321.267 350.624 363.196 262.85L371.691 265.901C349.609 319.539 303.913 378.353 295.012 416.16H390.404V220.566H368.373C336.395 290.057 289.532 354.089 240.87 354.089Z" fill="black"/>
</g>
<defs>
<clipPath id="clip0_11_1082">
<rect width="512" height="512" rx="80" fill="white"/>
</clipPath>
</defs>
</svg>
