<svg width="512" height="300" viewBox="0 0 512 300" fill="none" xmlns="http://www.w3.org/2000/svg">
<path d="M510.57 286.939C510.403 285.891 510.243 284.855 510.068 283.819C509.011 277.391 507.695 271.038 506.166 264.772C503.481 253.825 500.103 243.141 496.072 232.794C492.664 224.031 488.785 215.507 484.48 207.244C478.942 196.634 472.697 186.449 465.798 176.763C457.34 164.893 447.893 153.773 437.578 143.525C433.25 139.218 428.77 135.062 424.145 131.08C414.127 122.431 403.425 114.555 392.152 107.515C392.251 107.353 392.335 107.178 392.434 107.016C397.598 98.0917 402.779 89.1791 407.943 80.2552C412.994 71.5428 418.045 62.8303 423.095 54.1186C426.731 47.8653 430.36 41.5991 433.973 35.3458C434.832 33.8602 435.509 32.3253 436.019 30.753C437.434 26.3717 437.495 21.7659 436.361 17.4842C436.072 16.4239 435.722 15.3879 435.296 14.377C434.87 13.3653 434.376 12.3795 433.813 11.431C431.881 8.18608 429.12 5.36483 425.651 3.305C422.586 1.48324 419.155 0.397037 415.641 0.0851715C414.165 -0.0395748 412.682 -0.0274044 411.206 0.122443C409.989 0.24719 408.78 0.472342 407.578 0.784207C403.303 1.91986 399.333 4.26646 396.245 7.66123C395.134 8.88435 394.13 10.233 393.27 11.7178C389.642 17.9711 386.014 24.2373 382.393 30.4906L367.241 56.6272C362.076 65.5519 356.896 74.4637 351.731 83.3883C351.169 84.3612 350.598 85.3348 350.035 86.3214C349.252 86.0088 348.476 85.6969 347.692 85.3972C319.214 74.5382 288.316 68.5975 256.019 68.5975C255.137 68.5975 254.262 68.5975 253.372 68.6097C224.657 68.8965 197.069 73.8894 171.328 82.8513C168.354 83.8873 165.411 84.9857 162.49 86.1343C161.965 85.223 161.425 84.3118 160.908 83.4005C155.743 74.4758 150.563 65.5641 145.398 56.6394C140.347 47.9277 135.297 39.2152 130.246 30.5027C126.61 24.2494 122.982 17.984 119.369 11.7307C118.501 10.2452 117.505 8.89728 116.394 7.67416C113.306 4.27863 109.336 1.93203 105.061 0.796378C103.859 0.484512 102.649 0.260121 101.425 0.135374C99.9568 -0.0144734 98.4735 -0.0274044 96.9979 0.0973419C93.4837 0.397037 90.0532 1.48324 86.9801 3.31793C83.5116 5.377 80.7732 8.19825 78.826 11.4432C78.2631 12.3917 77.7611 13.3783 77.3427 14.3892C76.9168 15.4001 76.5517 16.4361 76.2778 17.4972C75.1444 21.7781 75.2053 26.3838 76.6125 30.7652C77.1297 32.3382 77.7991 33.8732 78.6586 35.3587C82.2945 41.612 85.9228 47.8775 89.5359 54.1308C94.5942 62.8432 99.6449 71.5557 104.696 80.2674C109.86 89.1921 115.033 98.1038 120.198 107.029C120.236 107.103 120.289 107.178 120.327 107.253C109.906 113.731 99.9948 120.908 90.6389 128.759C85.0329 133.465 79.6323 138.395 74.4599 143.55C64.1531 153.797 54.7134 164.918 46.2398 176.788C39.3331 186.474 33.0806 196.647 27.5583 207.269C23.253 215.532 19.3737 224.057 15.966 232.819C11.9346 243.166 8.55729 253.85 5.87221 264.797C4.3433 271.063 3.04259 277.404 1.97008 283.844C1.79513 284.88 1.63539 285.928 1.47566 286.964C0.897565 290.697 0.41075 294.454 0 298.236H512C511.589 294.454 511.102 290.697 510.532 286.964L510.57 286.939Z" fill="#34A853"/>
<path d="M389.178 227.424C399.424 220.604 400.915 204.825 392.502 192.182C384.097 179.539 368.975 174.819 358.737 181.639C348.491 188.46 347 204.238 355.413 216.881C363.818 229.524 378.94 234.245 389.178 227.424Z" fill="#202124"/>
<path d="M157.036 216.925C165.449 204.281 163.958 188.503 153.712 181.683C143.466 174.863 128.352 179.583 119.939 192.226C111.534 204.869 113.025 220.648 123.263 227.468C133.509 234.288 148.631 229.568 157.036 216.925Z" fill="#202124"/>
</svg>
