<svg width="512" height="512" viewBox="0 0 512 512" fill="none" xmlns="http://www.w3.org/2000/svg">
<path d="M0 80C0 35.8172 35.8172 0 80 0H432C476.183 0 512 35.8172 512 80V432C512 476.183 476.183 512 432 512H80C35.8172 512 0 476.183 0 432V80Z" fill="black"/>
<path d="M202.46 176C209.849 176 216.669 176.568 222.922 178.274C229.174 179.41 234.29 181.684 238.837 184.526C243.384 187.368 246.794 191.347 249.068 196.462C251.341 201.578 252.478 207.83 252.478 214.651C252.478 222.608 250.773 229.429 246.794 234.545C243.384 239.66 237.7 244.207 230.879 247.618C240.542 250.46 247.931 255.575 252.478 262.396C257.025 269.217 259.867 277.742 259.867 287.405C259.867 295.363 258.162 302.183 255.32 307.867C252.478 313.551 247.931 318.667 242.815 322.077C237.7 325.487 231.448 328.329 224.627 330.035C217.806 331.74 210.985 332.877 204.165 332.877H128V176H202.46ZM197.912 239.66C204.165 239.66 209.28 237.955 213.259 235.113C217.238 232.271 218.943 227.155 218.943 220.903C218.943 217.493 218.375 214.082 217.238 211.809C216.101 209.535 214.396 207.83 212.122 206.125C209.849 204.988 207.575 203.851 204.733 203.283C201.891 202.714 199.049 202.714 195.639 202.714H162.672V239.66H197.912ZM199.618 306.73C203.028 306.73 206.438 306.162 209.28 305.594C212.122 305.025 214.964 303.889 217.238 302.183C219.511 300.478 221.217 298.773 222.922 295.931C224.058 293.089 225.195 289.679 225.195 285.7C225.195 277.742 222.922 272.058 218.375 268.08C213.827 264.669 207.575 262.964 200.186 262.964H162.672V306.73H199.618ZM309.317 306.162C313.865 310.709 320.685 312.983 329.78 312.983C336.032 312.983 341.716 311.278 346.263 308.436C350.81 305.025 353.652 301.615 354.789 298.205H382.64C378.093 311.846 371.272 321.509 362.178 327.761C353.084 333.445 342.284 336.855 329.211 336.855C320.117 336.855 312.159 335.15 304.77 332.308C297.381 329.466 291.697 325.487 286.582 319.804C281.466 314.688 277.487 308.436 275.214 301.047C272.372 293.657 271.235 285.7 271.235 276.606C271.235 268.08 272.372 260.122 275.214 252.733C278.056 245.344 282.035 239.092 287.15 233.408C292.266 228.292 298.518 223.745 305.339 220.903C312.728 218.061 320.117 216.356 329.211 216.356C338.874 216.356 347.4 218.061 354.789 222.04C362.178 226.019 367.862 230.566 372.409 237.386C376.956 243.639 380.367 251.028 382.64 258.985C383.777 266.943 384.345 274.9 383.777 283.995H301.36C301.36 293.089 304.77 301.615 309.317 306.162ZM345.126 246.481C341.148 242.502 334.895 240.228 327.506 240.228C322.391 240.228 318.412 241.365 315.001 243.07C311.591 244.776 309.317 247.049 307.044 249.323C304.77 251.596 303.634 254.438 303.065 257.28C302.497 260.122 301.928 262.396 301.928 264.669H353.084C351.947 256.143 349.105 250.46 345.126 246.481ZM295.108 186.799H358.768V202.146H295.108V186.799Z" fill="white"/>
</svg>
