<svg width="512" height="512" viewBox="0 0 512 512" fill="none" xmlns="http://www.w3.org/2000/svg">
<rect width="512" height="512" rx="256" fill="#004D1A"/>
<path d="M188.159 153.6C198.124 153.6 207.22 154.468 215.447 156.185C223.675 157.903 230.7 160.723 236.561 164.645C242.421 168.568 246.969 173.775 250.205 180.282C253.44 186.79 255.049 194.817 255.049 204.38C255.049 214.702 252.645 223.307 247.857 230.194C243.068 237.082 235.969 242.722 226.596 247.115C239.5 250.748 249.133 257.112 255.492 266.187C261.852 275.262 265.032 286.217 265.032 299.033C265.032 309.356 262.98 318.304 258.876 325.86C254.771 333.417 249.243 339.581 242.292 344.354C235.341 349.144 227.428 352.669 218.535 354.965C209.587 357.261 200.361 358.418 191.117 358.4H89.6001V153.6H188.159ZM182.299 236.485C190.507 236.485 197.255 234.569 202.543 230.755C207.83 226.922 210.474 220.722 210.456 212.117C210.456 207.344 209.568 203.422 207.812 200.367C206.056 197.311 203.708 194.907 200.768 193.19C197.828 191.472 194.464 190.279 190.655 189.61C186.736 188.942 182.761 188.598 178.767 188.616H135.672V236.522L182.299 236.485ZM184.942 323.384C189.287 323.402 193.613 322.968 197.847 322.1C201.951 321.233 205.575 319.804 208.699 317.798C211.824 315.791 214.32 313.062 216.187 309.627C218.036 306.192 218.979 301.781 218.979 296.43C218.979 285.927 215.947 278.407 209.883 273.924C203.819 269.423 195.795 267.181 185.83 267.181H135.672V323.402L184.942 323.384ZM322.973 319.081C329.222 325.011 338.226 327.975 349.966 327.975C358.378 327.975 365.606 325.915 371.671 321.811C377.735 317.707 381.451 313.351 382.819 308.759H419.48C413.62 326.547 404.616 339.256 392.488 346.903C380.36 354.549 365.699 358.382 348.487 358.382C336.562 358.382 325.802 356.52 316.225 352.796C306.648 349.072 298.532 343.757 291.877 336.87C285.221 329.982 280.081 321.775 276.476 312.212C272.871 302.649 271.059 292.128 271.059 280.667C271.059 269.585 272.908 259.263 276.624 249.7C280.34 240.137 285.628 231.876 292.468 224.898C299.309 217.92 307.48 212.424 316.965 208.411C326.449 204.398 336.969 202.391 348.505 202.391C361.41 202.391 372.65 204.832 382.246 209.713C391.822 214.594 399.698 221.138 405.855 229.363C412.011 237.588 416.467 246.952 419.203 257.473C421.939 267.994 422.919 278.986 422.143 290.465H312.731C313.304 303.607 316.724 313.17 322.973 319.081ZM370.062 241.077C365.07 235.726 357.49 233.051 347.322 233.051C340.666 233.051 335.138 234.153 330.757 236.341C326.357 238.546 322.844 241.258 320.2 244.512C317.556 247.766 315.708 251.2 314.635 254.834C313.563 258.468 312.916 261.722 312.731 264.578H380.489C378.511 254.274 375.035 246.428 370.062 241.077ZM305.595 163.995H390.251V186.953H305.595V163.995Z" fill="white"/>
</svg>
