<svg width="512" height="512" viewBox="0 0 512 512" fill="none" xmlns="http://www.w3.org/2000/svg">
<path d="M192.467 283.803C194.307 251.222 210.352 222.434 234.662 202.093C258.451 182.096 290.402 169.856 325.478 169.856C360.381 169.856 392.332 182.079 416.121 202.093C440.431 222.434 456.406 251.222 458.316 283.803C460.157 317.246 446.595 348.448 422.893 371.548C398.583 394.992 364.201 409.818 325.478 409.818C286.756 409.818 252.2 395.096 228.064 371.548C204.275 348.448 190.73 317.419 192.64 283.976L192.467 283.803Z" fill="white"/>
<path d="M265.22 279.813C266.166 263.07 274.411 248.276 286.904 237.823C299.129 227.546 315.548 221.257 333.573 221.257C351.51 221.257 367.929 227.538 380.154 237.823C392.646 248.276 400.856 263.07 401.837 279.813C402.783 296.999 395.814 313.033 383.634 324.904C371.141 336.952 353.473 344.57 333.573 344.57C313.674 344.57 295.917 337.005 283.513 324.904C271.288 313.033 264.328 297.088 265.309 279.902L265.22 279.813Z" fill="#265787"/>
<path d="M158.14 315.248C158.256 321.804 160.362 334.56 163.52 344.482C170.159 365.566 181.457 385.055 197.072 402.152C213.135 419.781 232.944 433.955 255.788 444.054C279.792 454.596 305.849 460 332.887 460C359.924 459.965 385.981 454.472 409.985 443.789C432.829 433.601 452.639 419.427 468.701 401.71C484.406 384.435 495.649 364.946 502.253 343.862C505.599 333.232 507.714 322.424 508.561 311.616C509.391 300.986 509.043 290.267 507.518 279.548C504.537 258.73 497.255 239.152 486.101 221.434C475.929 205.046 462.722 190.783 447.017 178.735L447.053 178.709L289.108 58.23C288.966 58.1237 288.85 58.0084 288.698 57.911C278.347 50.009 260.857 50.0356 249.524 57.9553C238.013 65.9636 236.674 79.2163 246.936 87.5435L246.892 87.5878L312.836 140.829L112.059 141.041H111.792C95.194 141.059 79.2211 151.849 76.0979 165.58C72.8498 179.488 84.129 191.093 101.44 191.093L101.414 191.155L203.14 190.96L21.1031 329.157C20.8711 329.325 20.6212 329.502 20.407 329.67C3.2741 342.693 -2.25842 364.397 8.53889 378.039C19.5147 391.947 42.8047 392.036 60.1161 378.119L159.166 297.504C159.166 297.504 157.72 308.401 157.836 314.867L158.14 315.248ZM413.349 351.658C392.914 372.298 364.27 384.081 333.395 384.081C302.431 384.134 273.787 372.564 253.352 351.924C243.358 341.825 236.041 330.308 231.49 317.995C227.055 305.858 225.333 293.013 226.475 280.079C227.555 267.411 231.356 255.275 237.451 244.379C243.412 233.659 251.639 223.915 261.722 215.676C281.622 199.642 306.875 190.872 333.288 190.872C359.791 190.836 385.044 199.456 404.943 215.499C415.026 223.684 423.236 233.394 429.215 244.113C435.309 255.009 439.12 267.057 440.19 279.813C441.315 292.747 439.593 305.592 435.158 317.729C430.625 330.131 423.289 341.647 413.295 351.746L413.349 351.658Z" fill="#EA7600"/>
</svg>
