<svg width="512" height="512" viewBox="0 0 512 512" fill="none" xmlns="http://www.w3.org/2000/svg">
<g clip-path="url(#clip0_12_1116)">
<path d="M133.12 40.96C82.3091 40.96 40.96 82.2988 40.96 133.12V378.88C40.96 429.701 82.3091 471.04 133.12 471.04H378.88C429.691 471.04 471.04 429.701 471.04 378.88V133.12C471.04 82.2988 429.691 40.96 378.88 40.96H133.12ZM133.12 61.44H378.88C418.406 61.44 450.56 93.6038 450.56 133.12V378.88C450.56 418.396 418.406 450.56 378.88 450.56H133.12C93.5936 450.56 61.44 418.396 61.44 378.88V133.12C61.44 93.6038 93.5936 61.44 133.12 61.44ZM276.94 125.7C264.099 125.7 254.749 126.907 247.12 128.72C239.583 130.532 233.804 132.904 228.08 135.28C210.395 142.591 197.916 147.704 189.12 151.38L168.04 160.04C129.169 176.004 121.02 202.064 121.02 221.1C121.02 252.004 146.623 279.28 186.18 279.28C195.959 279.28 210.529 276.44 222.96 271.32L244.92 262.24L282.58 246.7C291.796 242.921 297.88 239.156 297.88 228.64C297.88 209.46 278.324 202.749 265.76 207.92L205.26 232.96C196.74 236.452 190.548 237.38 188.5 237.38C168.44 237.38 167.56 221.284 167.56 221.1C167.56 217.414 167.564 210.516 185.72 203.02L246.7 178.04C246.7 178.04 266.475 169.9 281.6 169.9C321.157 169.9 344.44 200.143 344.44 226.9C344.44 258.501 324.096 269.032 317.86 271.5L219.8 311.84C214.588 313.98 212.539 320.308 215.56 325.1L244.08 370.16C248.504 377.185 253.867 386.32 267.22 386.32C275.31 386.32 290.9 382.077 290.9 364.3C290.9 359.415 289.824 355.272 287.08 350.9L279.4 339.12C279.031 338.475 279.305 337.676 279.96 337.4L334.74 314.82C337.679 313.704 346.332 309.989 356.06 302.36C372.116 289.693 390.98 266.457 390.98 226.9C390.98 181.527 351.415 125.69 276.94 125.7Z" fill="#B4B4B4"/>
</g>
<defs>
<clipPath id="clip0_12_1116">
<rect width="512" height="512" fill="white"/>
</clipPath>
</defs>
</svg>
