<svg width="512" height="512" viewBox="0 0 512 512" fill="none" xmlns="http://www.w3.org/2000/svg">
<path d="M421 255.5C421 350.217 347.127 427 256 427C164.873 427 91.0002 350.217 91.0002 255.5C91.0002 160.783 164.873 84 256 84C347.127 84 421 160.783 421 255.5Z" fill="white"/>
<path d="M256 11.2402C120.269 11.2402 10.2402 121.269 10.2402 257C10.2402 392.731 120.269 502.76 256 502.76C391.731 502.76 501.76 392.731 501.76 257C501.76 121.269 391.731 11.2402 256 11.2402ZM159.514 180.2H352.026C362.24 180.2 356.967 193.307 351.411 196.661C345.856 199.989 268.979 246.504 266.087 248.219C263.194 249.935 259.507 250.779 255.77 250.779C252.173 250.853 248.622 249.969 245.479 248.219L160.128 196.661C154.573 193.307 149.325 180.2 159.514 180.2ZM358.4 321C358.4 326.376 351.949 333.8 347.034 333.8H164.967C160.051 333.8 153.6 326.376 153.6 321V227.637C153.6 225.282 153.549 222.235 158.003 224.821L245.479 276.405C248.566 278.292 252.158 279.186 255.77 278.965C259.507 278.965 262.221 278.683 266.087 276.405L353.997 224.847C358.451 222.235 358.4 225.307 358.4 227.663V321Z" fill="#004D1A"/>
</svg>
