<svg width="512" height="514" viewBox="0 0 512 514" fill="none" xmlns="http://www.w3.org/2000/svg">
<path d="M179.787 499.227C201.229 507.883 224.491 513.019 248.917 513.875C281.973 515.033 313.408 508.178 341.51 495.156C307.811 481.876 277.291 462.455 251.243 438.31C234.359 465.425 209.386 486.843 179.787 499.227Z" fill="#FF9100"/>
<path d="M251.24 438.318C191.781 383.162 155.711 303.329 158.759 215.767C158.859 212.924 159.008 210.082 159.184 207.241C148.534 204.479 137.417 202.793 125.976 202.392C109.6 201.819 93.7409 203.856 78.7688 208.085C62.8963 235.972 53.318 267.97 52.1247 302.243C49.0453 390.694 102.412 467.98 179.783 499.235C209.383 486.851 234.355 465.459 251.24 438.318Z" fill="#FFC400"/>
<path d="M251.241 438.315C265.065 416.126 273.446 390.112 274.422 362.084C276.988 288.357 227.575 224.935 159.184 207.238C159.009 210.079 158.86 212.921 158.76 215.764C155.712 303.326 191.782 383.158 251.241 438.315Z" fill="#FF9100"/>
<path d="M266.774 0C227.823 31.2987 197.065 72.5689 178.456 120.111C167.802 147.343 161.107 176.594 159.152 207.257C227.543 224.954 276.957 288.376 274.39 362.101C273.415 390.129 265.009 416.118 251.209 438.334C277.255 462.504 307.776 481.9 341.475 495.179C409.116 463.818 457.107 396.335 459.886 316.516C461.686 264.801 441.877 218.709 413.885 179.805C384.323 138.659 266.774 0 266.774 0Z" fill="#DD2C00"/>
</svg>
