<svg width="512" height="512" viewBox="0 0 512 512" fill="none" xmlns="http://www.w3.org/2000/svg">
<g clip-path="url(#clip0_15_941)">
<path d="M392 0H120C53.7258 0 0 53.7258 0 120V392C0 458.274 53.7258 512 120 512H392C458.274 512 512 458.274 512 392V120C512 53.7258 458.274 0 392 0Z" fill="black"/>
<path d="M256.002 60C145.558 60 56 149.542 56 260.002C56 348.368 113.307 423.336 192.773 449.782C202.768 451.634 206.438 445.444 206.438 440.162C206.438 435.392 206.252 419.638 206.166 402.926C150.526 415.024 138.785 379.328 138.785 379.328C129.687 356.21 116.579 350.064 116.579 350.064C98.4326 337.65 117.947 337.906 117.947 337.906C138.03 339.316 148.605 358.516 148.605 358.516C166.443 389.092 195.393 380.252 206.806 375.142C208.602 362.214 213.784 353.392 219.504 348.398C175.081 343.34 128.383 326.19 128.383 249.556C128.383 227.72 136.195 209.878 148.989 195.872C146.913 190.835 140.067 170.493 150.927 142.944C150.927 142.944 167.722 137.569 205.942 163.445C221.896 159.014 239.004 156.792 256.002 156.715C272.998 156.792 290.122 159.014 306.104 163.445C344.278 137.569 361.05 142.944 361.05 142.944C371.936 170.493 365.088 190.835 363.01 195.872C375.834 209.878 383.594 227.72 383.594 249.556C383.594 326.374 336.806 343.288 292.27 348.238C299.444 354.446 305.836 366.616 305.836 385.276C305.836 412.036 305.604 433.574 305.604 440.162C305.604 445.484 309.204 451.72 319.342 449.756C398.766 423.28 456 348.338 456 260.002C456 149.542 366.454 60 256.002 60ZM130.907 344.906C130.467 345.9 128.903 346.198 127.479 345.516C126.029 344.864 125.214 343.508 125.684 342.512C126.115 341.488 127.681 341.204 129.129 341.89C130.583 342.542 131.411 343.91 130.907 344.906ZM140.745 353.684C139.791 354.57 137.927 354.158 136.661 352.76C135.353 351.366 135.108 349.502 136.075 348.604C137.059 347.72 138.867 348.134 140.179 349.528C141.487 350.94 141.742 352.79 140.745 353.684ZM147.494 364.916C146.269 365.768 144.265 364.97 143.026 363.19C141.801 361.412 141.801 359.28 143.053 358.424C144.295 357.57 146.269 358.338 147.524 360.104C148.746 361.912 148.746 364.046 147.494 364.916ZM158.908 377.924C157.812 379.132 155.477 378.808 153.768 377.158C152.02 375.546 151.533 373.258 152.632 372.048C153.742 370.836 156.09 371.178 157.812 372.814C159.548 374.422 160.077 376.728 158.908 377.924ZM173.66 382.314C173.177 383.882 170.928 384.594 168.662 383.928C166.4 383.242 164.92 381.408 165.377 379.824C165.847 378.248 168.106 377.506 170.388 378.218C172.647 378.9 174.13 380.722 173.66 382.314ZM190.448 384.178C190.505 385.826 188.584 387.194 186.206 387.224C183.815 387.278 181.88 385.942 181.854 384.32C181.854 382.654 183.732 381.3 186.123 381.26C188.501 381.214 190.448 382.538 190.448 384.178ZM206.94 383.546C207.226 385.154 205.574 386.808 203.212 387.248C200.89 387.672 198.74 386.678 198.446 385.082C198.158 383.432 199.84 381.78 202.158 381.352C204.524 380.942 206.64 381.91 206.94 383.546Z" fill="white"/>
</g>
<defs>
<clipPath id="clip0_15_941">
<rect width="512" height="512" fill="white"/>
</clipPath>
</defs>
</svg>
