<svg width="512" height="512" viewBox="0 0 512 512" fill="none" xmlns="http://www.w3.org/2000/svg">
<path d="M459.624 336.58C459.624 336.58 458.936 332.42 458.544 332.468L383.252 339.736C380.357 340.007 377.653 341.298 375.623 343.379C373.594 345.46 372.37 348.196 372.172 351.096L370.108 380.748L311.844 384.908L307.892 358.028C307.445 355.119 305.975 352.466 303.746 350.544C301.516 348.623 298.675 347.561 295.732 347.548H216.268C213.326 347.562 210.485 348.625 208.257 350.546C206.028 352.467 204.559 355.12 204.112 358.028L200.16 384.908L141.896 380.748L139.832 351.092C139.637 348.191 138.415 345.453 136.384 343.372C134.354 341.29 131.648 340 128.752 339.732L53.412 332.468C53.036 332.42 52.74 336.58 52.348 336.58L52.252 352.876L116.068 363.172L118.148 393.08C118.367 396.025 119.634 398.794 121.721 400.884C123.808 402.974 126.575 404.245 129.52 404.468L209.756 410.204C210.068 410.22 210.364 410.236 210.66 410.236C213.598 410.217 216.432 409.15 218.654 407.229C220.876 405.307 222.341 402.656 222.784 399.752L226.864 372.092H285.144L289.224 399.752C289.693 402.807 291.289 405.575 293.699 407.51C296.109 409.445 299.156 410.406 302.24 410.204L382.488 404.468C385.434 404.246 388.202 402.975 390.289 400.885C392.377 398.795 393.645 396.026 393.864 393.08L395.944 363.172L459.724 352.828L459.624 336.58Z" fill="white"/>
<path d="M52.344 213.688V336.58C52.58 336.58 52.796 336.592 53.016 336.608L128.36 343.88C130.269 344.064 132.051 344.918 133.39 346.291C134.728 347.664 135.537 349.467 135.672 351.38L138 384.644L203.704 389.332L208.236 358.644C208.52 356.717 209.487 354.957 210.961 353.684C212.434 352.411 214.316 351.709 216.264 351.708H295.736C297.684 351.709 299.566 352.411 301.039 353.684C302.513 354.957 303.48 356.717 303.764 358.644L308.296 389.332L374.016 384.644L376.328 351.38C376.463 349.467 377.272 347.664 378.61 346.291C379.949 344.918 381.731 344.064 383.64 343.88L458.952 336.612C459.172 336.596 459.392 336.584 459.624 336.584V326.76H459.656V213.68C470.264 200.34 480.296 185.604 488 173.216C476.236 153.184 461.828 135.296 446.42 118.716C432.206 125.905 418.428 133.925 405.156 142.732C398.596 136.2 391.22 130.872 383.956 125.292C376.828 119.572 368.796 115.372 361.172 110.48C363.436 93.5881 364.564 76.9641 365.012 59.6041C345.36 49.7001 324.392 43.1521 303.188 38.4321C294.72 52.6681 286.968 68.0721 280.236 83.1361C272.236 81.8081 264.204 81.3081 256.156 81.2161V81.2001C256.092 81.2001 256.048 81.2161 256 81.2161C255.952 81.2161 255.908 81.2001 255.84 81.2001V81.2161C247.8 81.3081 239.764 81.8081 231.764 83.1361C225.032 68.0761 217.284 52.6681 208.812 38.4321C187.612 43.1521 166.64 49.7001 146.984 59.6041C147.436 76.9641 148.564 93.5881 150.828 110.484C143.204 115.372 135.172 119.576 128.048 125.292C120.796 130.872 113.408 136.2 106.844 142.732C93.5721 133.925 79.7937 125.905 65.58 118.716C50.172 135.296 35.76 153.188 24 173.22C33.252 187.736 43.172 202.312 52.344 213.688Z" fill="#478CBF"/>
<path d="M392.032 359.36L389.704 392.8C389.568 394.749 388.732 396.582 387.35 397.963C385.968 399.344 384.133 400.178 382.184 400.312L301.936 406.048C301.752 406.064 301.548 406.064 301.36 406.064C297.376 406.064 293.92 403.144 293.344 399.144L288.736 367.92H223.264L218.656 399.14C218.36 401.163 217.309 402.999 215.716 404.28C214.122 405.561 212.104 406.193 210.064 406.048L129.812 400.312C127.863 400.177 126.029 399.342 124.648 397.96C123.267 396.579 122.431 394.745 122.296 392.796L119.968 359.356L52.2202 352.828C52.2522 360.108 52.3402 368.092 52.3402 369.672C52.3402 441.22 143.108 475.608 255.86 476H256.14C368.892 475.608 459.624 441.22 459.624 369.672C459.624 368.064 459.72 360.112 459.748 352.828L392.032 359.36Z" fill="#478CBF"/>
<path d="M194.608 263.58C194.608 288.66 174.28 308.984 149.204 308.984C124.14 308.984 103.812 288.656 103.812 263.58C103.812 238.516 124.14 218.204 149.204 218.204C174.284 218.204 194.608 238.516 194.608 263.58Z" fill="white"/>
<path d="M183.688 266.264C183.689 270.222 182.909 274.141 181.395 277.797C179.88 281.453 177.66 284.775 174.861 287.573C172.062 290.371 168.739 292.59 165.082 294.103C161.425 295.616 157.506 296.394 153.548 296.392C145.556 296.393 137.891 293.22 132.239 287.57C126.587 281.92 123.41 274.256 123.408 266.264C123.412 258.274 126.59 250.612 132.242 244.964C137.894 239.315 145.558 236.143 153.548 236.144C157.505 236.142 161.424 236.919 165.08 238.432C168.737 239.945 172.059 242.163 174.858 244.96C177.657 247.757 179.877 251.078 181.392 254.734C182.908 258.389 183.688 262.307 183.688 266.264Z" fill="#414042"/>
<path d="M256 313.108C247.92 313.108 241.392 307.156 241.392 299.828V258.028C241.392 250.704 247.92 244.748 256 244.748C264.064 244.748 270.624 250.704 270.624 258.028V299.828C270.624 307.156 264.064 313.108 256 313.108ZM317.392 263.58C317.392 288.66 337.72 308.984 362.796 308.984C387.86 308.984 408.188 288.656 408.188 263.58C408.188 238.516 387.86 218.204 362.796 218.204C337.716 218.204 317.392 238.516 317.392 263.58Z" fill="white"/>
<path d="M328.313 266.264C328.311 270.221 329.09 274.138 330.603 277.794C332.117 281.449 334.336 284.771 337.133 287.569C339.93 290.367 343.252 292.586 346.907 294.1C350.562 295.614 354.48 296.393 358.436 296.392C366.426 296.392 374.089 293.218 379.739 287.568C385.389 281.919 388.562 274.256 388.562 266.266C388.562 258.276 385.389 250.614 379.739 244.964C374.089 239.314 366.426 236.14 358.436 236.14C354.481 236.14 350.564 236.919 346.909 238.433C343.255 239.947 339.934 242.166 337.137 244.964C334.34 247.761 332.122 251.082 330.608 254.736C329.095 258.391 328.312 262.308 328.313 266.264Z" fill="#414042"/>
</svg>
