<svg width="512" height="512" viewBox="0 0 512 512" fill="none" xmlns="http://www.w3.org/2000/svg">
<path d="M367.467 53.3335H144.534C94.1548 53.3335 53.3335 94.1548 53.3335 144.534V165.931V289.781V367.467C53.3335 417.824 94.1548 458.667 144.534 458.667H367.467C417.846 458.667 458.667 417.824 458.667 367.467V289.781V165.931V144.534C458.667 94.1548 417.846 53.3335 367.467 53.3335Z" fill="#01579B"/>
<path d="M213.333 213.323C201.568 213.323 192 222.891 192 234.656V373.333C192 385.099 201.568 394.667 213.333 394.667C225.088 394.667 234.667 385.099 234.667 373.333V234.656C234.667 222.891 225.099 213.323 213.333 213.323Z" fill="#FDFCEF"/>
<path d="M357.333 136.96L325.333 192.427C319.04 188.8 311.787 186.667 304 186.667V122.667C313.28 122.667 322.56 123.84 331.627 126.293C340.587 128.747 349.227 132.267 357.333 136.96Z" fill="#D82745"/>
<path d="M304 122.667L304.021 186.699C296.757 186.709 289.408 188.48 282.667 192.373L250.667 136.949C258.699 132.309 267.328 128.683 276.405 126.272C285.387 123.925 294.635 122.656 304 122.667Z" fill="#DD583A"/>
<path d="M250.667 136.96L282.699 192.405C276.416 196.043 270.934 201.259 267.04 208L211.616 176C216.256 167.968 221.91 160.512 228.566 153.888C235.179 147.36 242.55 141.632 250.667 136.96Z" fill="#F47C22"/>
<path d="M211.627 176L267.094 208C263.467 214.293 261.333 221.547 261.333 229.333H197.333C197.333 220.053 198.507 210.773 200.96 201.707C203.413 192.747 206.933 184.107 211.627 176Z" fill="#FCC938"/>
<path d="M197.334 229.333L261.366 229.312C261.376 236.576 263.147 243.925 267.04 250.667L211.616 282.667C206.976 274.635 203.35 266.005 200.939 256.928C198.592 247.947 197.323 238.699 197.334 229.333Z" fill="#DAEA7F"/>
<path d="M211.626 282.667L267.072 250.635C270.709 256.917 275.925 262.4 282.666 266.293L250.666 321.717C242.634 317.077 235.178 311.424 228.554 304.768C222.026 298.155 216.298 290.784 211.626 282.667Z" fill="#93BC39"/>
<path d="M250.667 321.707L282.667 266.24C288.96 269.867 296.213 272 304 272V336C294.72 336 285.44 334.827 276.373 332.374C267.413 329.92 258.773 326.4 250.667 321.707Z" fill="#6F913D"/>
<path d="M304 336L303.979 271.968C311.243 271.957 318.592 270.187 325.333 266.293L357.333 321.717C349.301 326.357 340.672 329.984 331.595 332.395C322.613 334.741 313.365 336.011 304 336Z" fill="#18C9C4"/>
<path d="M357.333 321.707L325.301 266.261C331.584 262.624 337.067 257.408 340.96 250.667L396.384 282.667C391.744 290.699 386.091 298.155 379.435 304.779C372.821 311.307 365.451 317.035 357.333 321.707Z" fill="#55A7F9"/>
<path d="M396.373 282.667L340.907 250.667C344.533 244.373 346.667 237.12 346.667 229.333H410.667C410.667 238.613 409.493 247.893 407.04 256.96C404.587 265.92 401.067 274.56 396.373 282.667Z" fill="#2D80D3"/>
<path d="M410.667 229.333L346.635 229.355C346.624 222.091 344.853 214.741 340.96 208L396.384 176C401.024 184.032 404.651 192.661 407.061 201.739C409.408 210.72 410.677 219.968 410.667 229.333Z" fill="#666AAD"/>
<path d="M396.373 176L340.928 208.032C337.291 201.749 332.075 196.267 325.333 192.373L357.333 136.949C365.365 141.589 372.822 147.243 379.446 153.899C385.974 160.512 391.701 167.883 396.373 176Z" fill="#EF657D"/>
<path d="M138.667 213.323C126.901 213.323 117.333 222.891 117.333 234.656V373.333C117.333 385.099 126.901 394.667 138.667 394.667C150.421 394.667 160 385.099 160 373.333V234.656C160 222.891 150.432 213.323 138.667 213.323Z" fill="#FDFCEF"/>
<path d="M138.667 194.667C151.921 194.667 162.667 183.921 162.667 170.667C162.667 157.412 151.921 146.667 138.667 146.667C125.412 146.667 114.667 157.412 114.667 170.667C114.667 183.921 125.412 194.667 138.667 194.667Z" fill="#FDFCEF"/>
<path d="M304 277.333C290.624 277.333 280.864 272.043 275.019 267.605C262.933 258.432 256 244.469 256 229.333C256 202.869 277.536 181.333 304 181.333C330.464 181.333 352 202.869 352 229.333C352 255.798 330.464 277.333 304 277.333ZM281.472 259.115C286.005 262.56 293.6 266.667 304 266.667C324.587 266.667 341.333 249.92 341.333 229.333C341.333 208.747 324.587 192 304 192C283.413 192 266.667 208.747 266.667 229.333C266.667 241.109 272.053 251.968 281.472 259.115Z" fill="#FDFCEF"/>
<path d="M304 341.333C279.328 341.333 255.925 333.462 236.32 318.571C208.149 297.184 192 264.661 192 229.333C192 167.573 242.24 117.333 304 117.333C365.76 117.333 416 167.573 416 229.333C416 291.094 365.76 341.333 304 341.333ZM304 128C248.128 128 202.667 173.461 202.667 229.333C202.667 261.301 217.28 290.731 242.784 310.08C260.501 323.552 281.675 330.667 304 330.667C359.872 330.667 405.333 285.206 405.333 229.333C405.333 173.461 359.872 128 304 128Z" fill="#FDFCEF"/>
<path d="M304 192C301.056 192 298.667 189.611 298.667 186.667V122.667C298.667 119.723 301.056 117.333 304 117.333C306.944 117.333 309.333 119.723 309.333 122.667V186.667C309.333 189.611 306.944 192 304 192Z" fill="#FDFCEF"/>
<path d="M282.667 197.718C280.832 197.718 279.029 196.768 278.048 195.051L246.048 139.627C244.565 137.078 245.44 133.814 248 132.342C250.549 130.87 253.813 131.723 255.285 134.294L287.285 189.718C288.768 192.267 287.893 195.531 285.333 197.003C284.48 197.494 283.573 197.718 282.667 197.718Z" fill="#FDFCEF"/>
<path d="M267.05 213.333C266.144 213.333 265.226 213.109 264.384 212.619L208.96 180.619C206.41 179.147 205.536 175.883 207.008 173.333C208.48 170.784 211.744 169.92 214.293 171.381L269.717 203.381C272.266 204.853 273.141 208.117 271.669 210.667C270.677 212.373 268.885 213.333 267.05 213.333Z" fill="#FDFCEF"/>
<path d="M261.333 234.667H197.333C194.389 234.667 192 232.277 192 229.333C192 226.389 194.389 224 197.333 224H261.333C264.277 224 266.667 226.389 266.667 229.333C266.667 232.277 264.277 234.667 261.333 234.667Z" fill="#FDFCEF"/>
<path d="M211.616 288C209.781 288 207.979 287.051 206.997 285.333C205.515 282.784 206.389 279.52 208.949 278.048L264.373 246.048C266.912 244.576 270.187 245.429 271.659 248C273.141 250.549 272.267 253.813 269.707 255.285L214.283 287.285C213.44 287.776 212.523 288 211.616 288Z" fill="#FDFCEF"/>
<path d="M250.666 327.04C249.76 327.04 248.842 326.816 248 326.325C245.45 324.853 244.576 321.589 246.048 319.04L278.048 263.616C279.52 261.067 282.784 260.203 285.333 261.664C287.882 263.136 288.757 266.4 287.285 268.949L255.285 324.373C254.293 326.08 252.49 327.04 250.666 327.04Z" fill="#FDFCEF"/>
<path d="M304 341.333C301.056 341.333 298.667 338.944 298.667 336V272C298.667 269.056 301.056 266.667 304 266.667C306.944 266.667 309.333 269.056 309.333 272V336C309.333 338.944 306.944 341.333 304 341.333Z" fill="#FDFCEF"/>
<path d="M357.333 327.04C355.499 327.04 353.696 326.091 352.715 324.374L320.715 268.95C319.232 266.4 320.107 263.136 322.667 261.664C325.205 260.182 328.48 261.056 329.952 263.616L361.952 319.04C363.435 321.59 362.56 324.854 360 326.326C359.147 326.816 358.24 327.04 357.333 327.04Z" fill="#FDFCEF"/>
<path d="M396.384 288C395.477 288 394.56 287.776 393.717 287.285L338.293 255.285C335.744 253.813 334.869 250.549 336.341 248C337.813 245.451 341.077 244.597 343.627 246.048L399.051 278.048C401.6 279.52 402.475 282.784 401.003 285.333C400.011 287.04 398.219 288 396.384 288Z" fill="#FDFCEF"/>
<path d="M410.667 234.667H346.667C343.723 234.667 341.333 232.277 341.333 229.333C341.333 226.389 343.723 224 346.667 224H410.667C413.611 224 416 226.389 416 229.333C416 232.277 413.611 234.667 410.667 234.667Z" fill="#FDFCEF"/>
<path d="M340.949 213.334C339.115 213.334 337.312 212.384 336.331 210.667C334.848 208.118 335.723 204.854 338.283 203.382L393.707 171.382C396.256 169.899 399.531 170.774 400.992 173.334C402.475 175.883 401.6 179.147 399.04 180.619L343.616 212.619C342.773 213.11 341.856 213.334 340.949 213.334Z" fill="#FDFCEF"/>
<path d="M325.333 197.718C324.427 197.718 323.509 197.494 322.667 197.003C320.117 195.531 319.243 192.267 320.715 189.718L352.715 134.294C354.187 131.744 357.451 130.891 360 132.342C362.549 133.814 363.424 137.078 361.952 139.627L329.952 195.051C328.96 196.758 327.157 197.718 325.333 197.718Z" fill="#FDFCEF"/>
</svg>
