<svg width="512" height="512" viewBox="0 0 512 512" fill="none" xmlns="http://www.w3.org/2000/svg">
<mask id="mask0_13_1151" style="mask-type:luminance" maskUnits="userSpaceOnUse" x="44" y="29" width="468" height="469">
<path d="M278.26 497.4C407.334 497.4 511.97 392.764 511.97 263.69C511.97 134.616 407.334 29.98 278.26 29.98C149.185 29.98 44.5498 134.616 44.5498 263.69C44.5498 392.764 149.185 497.4 278.26 497.4Z" fill="white"/>
</mask>
<g mask="url(#mask0_13_1151)">
<path d="M278.26 497.68C409.427 497.68 515.76 391.348 515.76 260.18C515.76 129.013 409.427 22.6802 278.26 22.6802C147.092 22.6802 40.7598 129.013 40.7598 260.18C40.7598 391.348 147.092 497.68 278.26 497.68Z" fill="black" fill-opacity="0.4745"/>
</g>
<path d="M278.26 482.21C407.334 482.21 511.97 377.575 511.97 248.5C511.97 119.426 407.334 14.79 278.26 14.79C149.185 14.79 44.5498 119.426 44.5498 248.5C44.5498 377.575 149.185 482.21 278.26 482.21Z" fill="white"/>
<path d="M278.26 482.21C407.334 482.21 511.97 377.575 511.97 248.5C511.97 119.426 407.334 14.79 278.26 14.79C149.185 14.79 44.5498 119.426 44.5498 248.5C44.5498 377.575 149.185 482.21 278.26 482.21Z" fill="url(#paint0_linear_13_1151)"/>
<path d="M278.26 482.21C407.334 482.21 511.97 377.575 511.97 248.5C511.97 119.426 407.334 14.79 278.26 14.79C149.185 14.79 44.5498 119.426 44.5498 248.5C44.5498 377.575 149.185 482.21 278.26 482.21Z" fill="url(#paint1_linear_13_1151)"/>
<path d="M278.26 482.21C407.334 482.21 511.97 377.575 511.97 248.5C511.97 119.426 407.334 14.79 278.26 14.79C149.185 14.79 44.5498 119.426 44.5498 248.5C44.5498 377.575 149.185 482.21 278.26 482.21Z" fill="url(#paint2_linear_13_1151)"/>
<path d="M110.42 86.2202C96.9196 100.15 85.2096 115.71 75.5596 132.53C109.73 165.97 146.53 201.46 161.53 217.63C186.92 244.99 239.83 284.95 278.43 280.35C293.67 291.07 328.2 315.08 339.74 320.77C339.51 326.29 340.62 331.88 342.6 337.44C353.42 367.73 393.88 387.41 370.33 419.69C416.69 391.6 429.01 344.72 409.37 311.29C397.11 290.41 379.26 283.56 364.41 288.55C355.51 278.49 320.13 249.11 307.1 238.38C298.79 201.02 248.41 162.49 216.32 145.78C196.71 135.55 151.85 110.32 110.42 86.2202Z" fill="black" fill-opacity="0.4745"/>
<path d="M307.539 266.661C270.093 301.586 198.037 246.169 167.632 211.385C136.351 175.585 19.5629 54.8384 11.0507 46.9918C2.50353 39.1453 -4.2925 29.4772 3.27385 19.8791C11.1204 10.4912 21.9797 15.1501 31.4376 21.9108C40.8605 28.6364 183.115 117.996 224.59 141.221C264.909 163.78 333.986 222.839 307.539 266.661Z" fill="url(#paint3_linear_13_1151)"/>
<path d="M367.614 301.165C221.472 431.545 101.951 306.595 83.4209 263.298C94.3851 338.436 145.003 405.658 221.472 431.545C279.235 451.091 371.398 450.636 412.732 376.198L367.614 301.165Z" fill="url(#paint4_linear_13_1151)"/>
<path d="M366.985 313.425C355.04 318.89 356.336 322.848 345.722 321.132C338.4 319.941 275.068 271.951 275.068 271.951C271.845 264.244 275.698 253.665 282.949 245.258C289.675 236.466 299.238 230.511 307.435 232.052C307.435 232.052 367.475 284.106 370.137 291.042C374.025 301.06 369.892 300.605 366.985 313.425Z" fill="#BFBFBF"/>
<path d="M370.277 419.634C417.462 392.942 431.193 346.458 412.558 312.444C398.091 285.997 374.305 281.023 357.912 293.809C341.623 306.489 340.187 321.587 345.056 336.58C354.934 367.195 394.798 388.073 370.277 419.634Z" fill="#282828"/>
<defs>
<linearGradient id="paint0_linear_13_1151" x1="480.629" y1="365.347" x2="177.114" y2="190.108" gradientUnits="userSpaceOnUse">
<stop stop-color="#FFFF00"/>
<stop offset="1" stop-color="#FFFF00" stop-opacity="0"/>
</linearGradient>
<linearGradient id="paint1_linear_13_1151" x1="75.8606" y1="365.35" x2="379.376" y2="190.11" gradientUnits="userSpaceOnUse">
<stop stop-color="#00FFFF"/>
<stop offset="1" stop-color="#00FFFF" stop-opacity="0"/>
</linearGradient>
<linearGradient id="paint2_linear_13_1151" x1="278.255" y1="14.7903" x2="278.255" y2="365.27" gradientUnits="userSpaceOnUse">
<stop stop-color="#FF00FF"/>
<stop offset="1" stop-color="#FF00FF" stop-opacity="0"/>
</linearGradient>
<linearGradient id="paint3_linear_13_1151" x1="3.57554" y1="19.6754" x2="1091.54" y2="903.239" gradientUnits="userSpaceOnUse">
<stop stop-color="#343434"/>
<stop offset="1" stop-color="#4D4D4D"/>
</linearGradient>
<linearGradient id="paint4_linear_13_1151" x1="380.61" y1="354.315" x2="-630.402" y2="346.328" gradientUnits="userSpaceOnUse">
<stop stop-color="#5596EA"/>
<stop offset="1" stop-color="#5596EA" stop-opacity="0"/>
</linearGradient>
</defs>
</svg>
