<svg width="2312" height="690" viewBox="0 0 2312 690" fill="none" xmlns="http://www.w3.org/2000/svg">
<g clip-path="url(#clip0_43_933)">
<path d="M335 70.3771C424.502 70.3771 435.008 70.7761 470.383 72.372C503.099 73.8349 520.786 79.2874 532.622 83.942C548.315 90.0595 559.486 97.241 571.189 108.944C582.892 120.647 590.207 131.818 596.191 147.511C600.713 159.347 606.299 177.035 607.761 209.75C609.357 245.125 609.756 255.631 609.756 345.133C609.756 434.635 609.357 445.141 607.761 480.516C606.299 513.231 600.846 530.919 596.191 542.755C590.074 558.448 582.892 569.619 571.189 581.322C559.486 593.025 548.315 600.339 532.622 606.324C520.786 610.846 503.099 616.431 470.383 617.894C435.008 619.49 424.502 619.889 335 619.889C245.498 619.889 234.992 619.49 199.617 617.894C166.902 616.431 149.214 610.979 137.378 606.324C121.685 600.206 110.514 593.025 98.8111 581.322C87.108 569.619 79.7936 558.448 73.8091 542.755C69.2875 530.919 63.7019 513.231 62.239 480.516C60.6432 445.141 60.2442 434.635 60.2442 345.133C60.2442 255.631 60.6432 245.125 62.239 209.75C63.7019 177.035 69.1545 159.347 73.8091 147.511C79.9266 131.818 87.108 120.647 98.8111 108.944C110.514 97.241 121.685 89.9266 137.378 83.942C149.214 79.4204 166.902 73.8349 199.617 72.372C234.992 70.6431 245.631 70.3771 335 70.3771ZM335 10C244.035 10 232.598 10.399 196.824 11.9948C161.183 13.5907 136.846 19.3092 115.568 27.5546C93.4915 36.0659 74.873 47.636 56.2545 66.2545C37.636 84.873 26.1989 103.624 17.5546 125.568C9.30926 146.846 3.59071 171.183 1.99484 206.957C0.398968 242.598 0 254.035 0 345C0 435.965 0.398968 447.402 1.99484 483.176C3.59071 518.817 9.30926 543.154 17.5546 564.565C26.0659 586.642 37.636 605.26 56.2545 623.879C74.873 642.497 93.6245 653.934 115.568 662.578C136.846 670.824 161.183 676.542 196.957 678.138C232.731 679.734 244.035 680.133 335.133 680.133C426.231 680.133 437.535 679.734 473.309 678.138C508.95 676.542 533.287 670.824 554.699 662.578C576.775 654.067 595.393 642.497 614.012 623.879C632.63 605.26 644.068 586.509 652.712 564.565C660.957 543.287 666.676 518.95 668.272 483.176C669.867 447.402 670.266 436.098 670.266 345C670.266 253.902 669.867 242.598 668.272 206.824C666.676 171.183 660.957 146.846 652.712 125.435C644.201 103.358 632.63 84.74 614.012 66.1215C595.393 47.503 576.642 36.0659 554.699 27.4216C533.42 19.1763 509.083 13.4577 473.309 11.8619C437.402 10.399 425.965 10 335 10Z" fill="#00A651"/>
<path d="M335 173.045C240.046 173.045 162.912 250.046 162.912 345.133C162.912 440.22 239.913 517.221 335 517.221C430.088 517.221 507.088 440.22 507.088 345.133C507.088 250.046 430.088 173.045 335 173.045ZM335 456.711C273.293 456.711 223.289 406.707 223.289 345C223.289 283.293 273.293 233.289 335 233.289C396.707 233.289 446.711 283.293 446.711 345C446.711 406.707 396.707 456.711 335 456.711Z" fill="#00A651"/>
<path d="M513.871 206.292C536.052 206.292 554.034 188.311 554.034 166.13C554.034 143.948 536.052 125.967 513.871 125.967C491.689 125.967 473.708 143.948 473.708 166.13C473.708 188.311 491.689 206.292 513.871 206.292Z" fill="#00A651"/>
</g>
<path d="M742.5 185V72.5H787.5V185H742.5ZM832.5 185V72.5H877.5V95H900V117.5H922.5V72.5H967.5V185H922.5V162.5H900V140H877.5V185H832.5ZM1012.5 185V162.5H1080V140H1035V117.5H1012.5V95H1035V72.5H1125V95H1057.5V117.5H1102.5V140H1125V162.5H1102.5V185H1012.5ZM1192.5 185V95H1170V72.5H1260V95H1237.5V185H1192.5ZM1305 185V95H1327.5V72.5H1395V95H1417.5V185H1372.5V140H1350V185H1305ZM1350 117.5H1372.5V95.9H1350V117.5ZM1485 185V162.5H1462.5V95H1485V72.5H1575V95H1507.5V162.5H1530V117.5H1575V162.5H1552.5V185H1485ZM1620 185V72.5H1710V95H1732.5V117.5H1710V162.5H1732.5V185H1687.5V162.5H1665V185H1620ZM1665 117.5H1687.5V95H1665V117.5ZM1777.5 185V95H1800V72.5H1867.5V95H1890V185H1845V140H1822.5V185H1777.5ZM1822.5 117.5H1845V95.9H1822.5V117.5ZM1935 185V72.5H1980V95H2025V72.5H2070V185H2025V140H1980V185H1935ZM742.5 415V302.5H832.5V325H855V392.5H832.5V415H742.5ZM787.5 392.5H809.1V325H787.5V392.5ZM900 415V302.5H990V325H945V347.5H990V370H945V392.5H990V415H900ZM1125 415V302.5H1215V325H1237.5V392.5H1215V415H1125ZM1170 392.5H1191.6V325H1170V392.5ZM1282.5 415V302.5H1372.5V325H1327.5V347.5H1372.5V370H1327.5V392.5H1372.5V415H1282.5ZM1417.5 415V392.5H1485V370H1440V347.5H1417.5V325H1440V302.5H1530V325H1462.5V347.5H1507.5V370H1530V392.5H1507.5V415H1417.5ZM1575 415V302.5H1665V325H1620V347.5H1665V370H1620V392.5H1665V415H1575ZM1710 415V302.5H1755V325H1777.5V347.5H1800V302.5H1845V415H1800V392.5H1777.5V370H1755V415H1710ZM1890 415V302.5H1935V347.5H1957.5V302.5H2002.5V415H1957.5V370H1935V415H1890ZM2070 415V392.5H2047.5V325H2070V302.5H2137.5V325H2160V392.5H2137.5V415H2070ZM2092.5 391.6H2115V325.9H2092.5V391.6ZM2205 347.5V325H2250V347.5H2205ZM2205 392.5V370H2250V392.5H2205Z" fill="#00A651"/>
<path d="M765 645V622.5H742.5V555H765V532.5H855V555H877.5V577.5H855V600H787.5V622.5H855V645H765ZM945 645V622.5H922.5V555H945V532.5H1012.5V555H1035V577.5H990V555H967.5V622.5H990V600H1035V622.5H1012.5V645H945ZM1102.5 645V622.5H1080V555H1102.5V532.5H1170V555H1192.5V622.5H1170V645H1102.5ZM1125 621.6H1147.5V555.9H1125V621.6ZM1237.5 645V532.5H1282.5V622.5H1327.5V645H1237.5ZM1372.5 645V532.5H1417.5V622.5H1462.5V645H1372.5ZM1507.5 645V532.5H1552.5V645H1507.5ZM1597.5 645V532.5H1687.5V555H1710V577.5H1687.5V622.5H1710V645H1665V622.5H1642.5V645H1597.5ZM1642.5 577.5H1665V555H1642.5V577.5ZM1755 645V532.5H1800V645H1755ZM1845 645V555H1867.5V532.5H1935V555H1957.5V645H1912.5V600H1890V645H1845ZM1890 577.5H1912.5V555.9H1890V577.5ZM2002.5 645V532.5H2047.5V622.5H2092.5V645H2002.5ZM2137.5 645V532.5H2182.5V622.5H2227.5V645H2137.5Z" fill="#CCEA67"/>
<defs>
<clipPath id="clip0_43_933">
<rect width="670" height="670" fill="white" transform="translate(0 10)"/>
</clipPath>
</defs>
</svg>
