<svg width="512" height="512" viewBox="0 0 512 512" fill="none" xmlns="http://www.w3.org/2000/svg">
<g clip-path="url(#clip0_13_1213)">
<path d="M256.003 512.006C397.39 512.006 512.006 397.39 512.006 256.003C512.006 114.617 397.39 0 256.003 0C114.617 0 0 114.617 0 256.003C0 397.39 114.617 512.006 256.003 512.006Z" fill="black"/>
<path d="M425.273 448.062L196.673 153.602H153.602V358.319H188.06V197.361L398.224 468.898C407.694 462.563 416.73 455.602 425.273 448.062Z" fill="url(#paint0_linear_13_1213)"/>
<path d="M327.115 153.602H361.249V358.404H327.115V153.602Z" fill="url(#paint1_linear_13_1213)"/>
</g>
<defs>
<linearGradient id="paint0_linear_13_1213" x1="310.048" y1="331.382" x2="411.028" y2="456.539" gradientUnits="userSpaceOnUse">
<stop stop-color="white"/>
<stop offset="1" stop-color="white" stop-opacity="0"/>
</linearGradient>
<linearGradient id="paint1_linear_13_1213" x1="344.182" y1="153.602" x2="343.61" y2="304.004" gradientUnits="userSpaceOnUse">
<stop stop-color="white"/>
<stop offset="1" stop-color="white" stop-opacity="0"/>
</linearGradient>
<clipPath id="clip0_13_1213">
<rect width="512" height="512" fill="white"/>
</clipPath>
</defs>
</svg>
