<svg width="512" height="512" viewBox="0 0 512 512" fill="none" xmlns="http://www.w3.org/2000/svg">
<g clip-path="url(#clip0_15_945)">
<path d="M30.807 22.0823L314.112 1.15688C348.913 -1.82808 357.852 0.184078 379.735 16.0919L470.17 79.8001C485.084 90.7569 490.051 93.7418 490.051 105.671V455.076C490.051 476.974 482.099 489.927 454.262 491.904L125.271 511.831C104.381 512.819 94.4333 509.834 83.4918 495.892L16.896 409.293C4.95104 393.354 0 381.424 0 367.478V56.8983C0 38.9937 7.95136 24.0638 30.807 22.0823Z" fill="white"/>
<path fill-rule="evenodd" clip-rule="evenodd" d="M314.112 1.162L30.807 22.0874C7.95136 24.0638 0 38.9988 0 56.8983V367.478C0 381.419 4.95104 393.349 16.896 409.293L83.4918 495.887C94.4333 509.829 104.381 512.819 125.271 511.826L454.267 491.909C482.084 489.927 490.056 476.974 490.056 455.081V105.677C490.056 94.3614 485.586 91.0999 472.428 81.4436L379.735 16.0919C357.857 0.184078 348.913 -1.82808 314.112 1.15688V1.162ZM132.71 99.9575C105.846 101.765 99.753 102.174 84.4954 89.7687L45.7062 58.9156C41.7638 54.922 43.7453 49.9402 53.6781 48.947L326.026 29.0455C348.897 27.0487 360.806 35.0206 369.751 41.9838L416.461 75.827C418.458 76.8356 423.424 82.7902 417.449 82.7902L136.192 99.722L132.71 99.9575ZM101.391 452.096V155.479C101.391 142.525 105.37 136.55 117.279 135.547L440.32 116.633C451.277 115.645 456.228 122.608 456.228 135.542V430.182C456.228 443.136 454.231 454.093 436.347 455.081L127.217 473.001C109.332 473.989 101.396 468.034 101.396 452.096H101.391ZM406.543 171.382C408.525 180.342 406.543 189.302 397.583 190.326L382.684 193.28V412.277C369.746 419.241 357.837 423.219 347.884 423.219C331.976 423.219 328.003 418.237 316.088 403.318L218.655 250.025V398.336L249.477 405.314C249.477 405.314 249.477 423.234 224.609 423.234L156.052 427.213C154.056 423.219 156.052 413.271 163 411.289L180.905 406.323V210.227L156.058 208.215C154.061 199.255 159.027 186.317 172.954 185.313L246.513 180.362L347.889 335.636V198.267L322.048 195.297C320.051 184.325 328.003 176.353 337.935 175.38L406.543 171.382Z" fill="black"/>
</g>
<defs>
<clipPath id="clip0_15_945">
<rect width="512" height="512" fill="white"/>
</clipPath>
</defs>
</svg>
