<svg width="512" height="512" viewBox="0 0 512 512" fill="none" xmlns="http://www.w3.org/2000/svg">
<path d="M163.113 0L109.273 75.8311V118.696L62.4223 140.98L62 140.782V420.436L244.663 506.732L255.824 512L266.987 506.732L449.649 420.436V140.782L449.304 140.944L402.442 118.652V75.8311L400.802 73.5251L348.599 0L294.757 75.8311V75.906L255.579 20.7284L216.706 75.4822L215.315 73.5251L163.113 0ZM172.638 44.0489L193.462 73.3754H132.764L153.346 44.3933L172.638 44.0489ZM358.12 44.0489L378.949 73.3754H318.249L338.827 44.3933L358.12 44.0489ZM265.104 64.7803L285.928 94.1053H225.234L245.811 65.1217L265.104 64.7803ZM127.008 88.1562H155.795V185.093L127.008 171.492V88.1562ZM170.576 88.1562H199.221V205.604L170.576 192.074V88.1562ZM312.496 88.1562H341.282V191.974L312.496 205.573V88.1562ZM356.06 88.1562H384.702V171.459L356.06 184.99V88.1562ZM219.475 108.885H248.264V228.774L219.475 215.171V108.885ZM263.045 108.885H291.686V215.405L263.045 228.938V108.885ZM402.436 140.743L427.782 151.107L402.436 163.08V140.743ZM109.273 140.782V163.116L83.9324 151.143L109.273 140.782ZM84.3232 176.017L244.663 251.763V482.039L84.3217 406.294L84.3232 176.017ZM427.324 176.017V406.294L266.987 482.039V251.762L427.324 176.017Z" fill="white"/>
</svg>
