<svg width="512" height="512" viewBox="0 0 512 512" fill="none" xmlns="http://www.w3.org/2000/svg">
<g clip-path="url(#clip0_15_948)">
<path fill-rule="evenodd" clip-rule="evenodd" d="M220.25 368.59C220.25 380.096 211.21 389.136 199.705 389.136H114.235C102.729 389.136 93.6895 380.096 93.6895 368.591V114.645C93.6895 103.14 102.729 94.0991 114.234 94.0991H199.704C211.21 94.0991 220.25 103.139 220.25 114.645V368.591V368.59ZM417.49 251.89C417.49 263.396 408.45 272.437 397.766 272.437H311.474C299.968 272.437 290.928 263.397 290.928 251.891V114.645C290.928 103.14 299.968 94.0991 311.474 94.0991H396.944C408.45 94.0991 417.49 103.139 417.49 114.645V251.891V251.89Z" fill="white"/>
<path d="M451.185 -0.411133H60.8154C27.1204 -0.411133 0 26.7093 0 60.4043V451.595C0 485.29 27.1204 512.411 60.8154 512.411H451.185C484.88 512.411 512 485.29 512 451.595V60.4043C512 26.7093 484.88 -0.411133 451.185 -0.411133ZM220.25 368.591C220.25 380.096 211.21 389.136 199.705 389.136H114.234C102.729 389.136 93.6886 380.096 93.6886 368.591V114.645C93.6886 103.139 102.729 94.0993 114.234 94.0993H199.705C211.21 94.0993 220.25 103.139 220.25 114.645V368.591ZM417.49 251.891C417.49 263.396 408.449 272.436 397.766 272.436H311.474C299.968 272.436 290.928 263.396 290.928 251.891V114.645C290.928 103.139 299.968 94.0993 311.474 94.0993H396.944C408.449 94.0993 417.49 103.139 417.49 114.645V251.891Z" fill="url(#paint0_linear_15_948)"/>
</g>
<defs>
<linearGradient id="paint0_linear_15_948" x1="255.959" y1="512.411" x2="255.959" y2="-0.328922" gradientUnits="userSpaceOnUse">
<stop stop-color="#0052CC"/>
<stop offset="1" stop-color="#2684FF"/>
</linearGradient>
<clipPath id="clip0_15_948">
<rect width="512" height="512" fill="white"/>
</clipPath>
</defs>
</svg>
