<svg width="512" height="512" viewBox="0 0 512 512" fill="none" xmlns="http://www.w3.org/2000/svg">
<path d="M499.064 75.4371L269.291 492.414C264.547 501.022 252.359 501.073 247.543 492.506L13.2142 75.4773C7.96832 66.1413 15.8348 54.8328 26.2595 56.7238L256.279 98.449C257.746 98.7151 259.248 98.7126 260.715 98.4413L485.924 56.7836C496.314 54.8618 504.218 66.0827 499.064 75.4371Z" fill="url(#paint0_linear_19_933)"/>
<path d="M365.849 1.99541L195.81 35.8087C193.015 36.3644 190.946 38.768 190.778 41.6526L180.318 220.933C180.072 225.156 183.893 228.433 187.954 227.483L235.295 216.395C239.725 215.358 243.727 219.317 242.817 223.838L228.752 293.735C227.805 298.439 232.157 302.462 236.684 301.066L265.924 292.051C270.457 290.654 274.813 294.688 273.854 299.396L251.502 409.188C250.103 416.056 259.105 419.801 262.859 413.913L265.366 409.98L403.923 129.359C406.244 124.66 402.242 119.302 397.157 120.298L348.427 129.843C343.848 130.739 339.952 126.411 341.244 121.864L373.05 9.97005C374.343 5.4156 370.433 1.08392 365.849 1.99541Z" fill="url(#paint1_linear_19_933)"/>
<defs>
<linearGradient id="paint0_linear_19_933" x1="7.49291" y1="41.8217" x2="298.954" y2="431.857" gradientUnits="userSpaceOnUse">
<stop stop-color="#41D1FF"/>
<stop offset="1" stop-color="#BD34FE"/>
</linearGradient>
<linearGradient id="paint1_linear_19_933" x1="243.077" y1="11.1756" x2="296.322" y2="371.089" gradientUnits="userSpaceOnUse">
<stop stop-color="#FFEA83"/>
<stop offset="0.0833333" stop-color="#FFDD35"/>
<stop offset="1" stop-color="#FFA800"/>
</linearGradient>
</defs>
</svg>
