<svg width="512" height="512" viewBox="0 0 512 512" fill="none" xmlns="http://www.w3.org/2000/svg">
<g clip-path="url(#clip0_17_933)">
<path fill-rule="evenodd" clip-rule="evenodd" d="M255.858 0.00359171C322.311 0.00359171 388.768 0.00359171 455.222 0C463.561 0 471.823 0.718343 479.825 3.13916C497.173 8.38665 506.361 20.7314 509.961 37.7453C511.389 44.4905 511.795 51.3687 511.81 58.2432C511.915 104.425 511.995 150.608 511.998 196.79C512.002 280.901 512.013 365.011 511.839 449.122C511.814 460.896 511.183 472.799 505.324 483.523C498.827 495.419 489.929 504.833 476.424 508.974C473.984 509.721 471.435 510.573 468.934 510.573C463.169 510.576 457.56 511.995 451.814 511.995C321.68 511.984 191.547 512.06 61.4139 511.855C50.8308 511.837 40.0736 511.072 30.0199 506.798C28.0186 505.947 25.9991 505.232 24.2407 503.903C11.4387 494.223 2.7482 482.151 0.884644 465.816C0.21391 459.926 0 454.068 0 448.177C0.0217535 317.295 0.0326303 186.413 0.101517 55.5315C0.105142 47.9386 0.184905 40.2164 2.53791 32.9504C8.80656 13.5839 22.5222 3.01345 42.8545 0.865603C47.5786 0.366355 52.3463 0.0431005 57.0922 0.0395088C123.346 -0.0143668 189.604 0.00359171 255.858 0.00359171Z" fill="#FB7A24"/>
<path fill-rule="evenodd" clip-rule="evenodd" d="M257.551 325.682C256.096 334.522 255.075 342.51 251.875 349.873C236.893 384.371 211.362 405.393 173.087 409.578C127.843 414.523 86.0567 386.817 73.4925 343.785C68.9388 328.189 69.3949 312.292 71.0455 296.421C72.8083 279.461 77.8435 263.377 85.7056 248.206C86.8313 246.036 86.8096 244.398 85.4015 242.297C73.3296 224.281 68.6456 204.379 70.3469 182.897C71.2555 171.415 74.0644 160.431 79.3131 150.145C94.6899 120.01 128.452 94.4371 173.67 98.6825C213.429 102.414 250.257 136.446 256.005 174.719C256.295 176.641 256.838 178.526 257.475 181.36C258.427 176.228 259.114 171.993 260.005 167.798C267.411 133.026 301.712 96.6424 350.333 96.1934C399.612 95.7409 436.107 134.09 442.992 169.709C445.902 184.761 445.395 199.8 442.995 214.831C440.595 229.848 436.15 244.283 429.653 258.043C428.219 261.078 428.368 263.262 430.203 266.081C440.816 282.402 445.5 300.318 444.899 319.774C443.643 360.371 414.707 396.777 374.897 406.298C319.315 419.588 276.71 386.605 262.372 346.701C260.034 340.207 258.926 333.426 257.551 325.682ZM358.528 254.358C359.122 252.063 360.913 250.687 362.202 248.988C376.138 230.613 383.468 210.087 381.832 186.974C380.641 170.104 366.658 158.222 349.732 158.851C332.795 159.479 320.032 172.442 319.793 189.258C319.775 190.634 319.858 192.013 319.771 193.382C318.605 211.304 308.64 221.12 293.539 222.216C290.78 222.417 288.015 222.661 285.253 222.668C265.652 222.712 246.054 222.704 226.453 222.686C217.893 222.679 209.404 223.602 201.252 226.099C163.198 237.75 141.009 263.571 133.66 302.056C132.205 309.67 130.895 317.572 133.411 325.395C137.02 336.612 143.749 344.955 155.661 347.746C168.008 350.638 178.763 347.437 187.305 337.815C192.829 331.594 194.57 324.203 194.983 316.089C196.051 295.221 207.504 284.791 226.602 284.949C255.9 285.189 285.202 284.999 314.504 285.021C319.706 285.024 319.753 285.092 319.778 290.196C319.829 299.624 319.536 309.063 319.901 318.481C320.499 333.853 334.131 346.633 349.935 347.082C366.231 347.545 380.757 335.585 381.818 319.972C382.733 306.46 382.675 292.861 381.781 279.338C381.09 268.869 375.382 261.409 365.71 257.077C363.389 256.043 360.95 255.267 358.528 254.358ZM174.864 222.64C181.166 222.64 186.31 222.582 191.45 222.665C193.998 222.704 194.943 221.616 194.921 219.138C194.838 209.329 195.349 199.488 194.719 189.714C193.886 176.82 186.976 167.5 174.879 162.798C162.474 157.978 151.122 160.729 141.523 169.82C131.879 178.954 130.594 190.124 133.968 202.35C137.067 213.585 144.389 219.967 155.904 221.896C162.593 223.013 169.319 222.478 174.864 222.64Z" fill="white"/>
</g>
<defs>
<clipPath id="clip0_17_933">
<rect width="512" height="512" fill="white"/>
</clipPath>
</defs>
</svg>
